<svg width="520" height="360" viewBox="0 0 520 360" xmlns="http://www.w3.org/2000/svg" role="img" aria-labelledby="title desc">
  <title id="title">KIST Hostel rooftop bhajan illustration</title>
  <desc id="desc">Illustration of rooftop evening gathering overlooking Kathmandu skyline.</desc>
  <defs>
    <linearGradient id="sunset" x1="0" x2="0" y1="0" y2="1">
      <stop offset="0%" stop-color="#fdd5b1"/>
      <stop offset="100%" stop-color="#e0e7ff"/>
    </linearGradient>
  </defs>
  <rect width="520" height="360" rx="24" fill="url(#sunset)"/>
  <path d="M40 300h440v60H40z" fill="#c41e3a" opacity="0.85"/>
  <path d="M40 280h440v24H40z" fill="#1a4a8d" opacity="0.9"/>
  <g transform="translate(80 120)">
    <rect width="360" height="120" rx="16" fill="#fff" opacity="0.9"/>
    <path d="M0 100h360" stroke="#1a4a8d" stroke-width="4" opacity="0.2"/>
    <g fill="#c41e3a" opacity="0.8">
      <rect x="30" y="20" width="40" height="70" rx="8"/>
      <rect x="110" y="20" width="40" height="70" rx="8"/>
      <rect x="190" y="20" width="40" height="70" rx="8"/>
      <rect x="270" y="20" width="40" height="70" rx="8"/>
    </g>
    <g transform="translate(20 20)" fill="#1a4a8d" opacity="0.75">
      <circle cx="20" cy="80" r="18"/>
      <circle cx="100" cy="80" r="18"/>
      <circle cx="180" cy="80" r="18"/>
      <circle cx="260" cy="80" r="18"/>
    </g>
  </g>
  <g transform="translate(60 40)" fill="#fff" opacity="0.35">
    <circle cx="40" cy="40" r="18"/>
    <circle cx="120" cy="20" r="12"/>
    <circle cx="200" cy="36" r="10"/>
    <circle cx="280" cy="18" r="14"/>
    <circle cx="360" cy="30" r="10"/>
    <circle cx="440" cy="16" r="12"/>
  </g>
  <text x="260" y="90" font-family="'Hind', sans-serif" font-size="22" text-anchor="middle" fill="#7a1225">साँझको भजन र दृश्य</text>
</svg>
