<svg width="520" height="360" viewBox="0 0 520 360" xmlns="http://www.w3.org/2000/svg" role="img" aria-labelledby="title desc">
  <title id="title">Nest Boy's Hostel courtyard illustration</title>
  <desc id="desc">Stylised courtyard entrance with prayer flags welcoming students.</desc>
  <defs>
    <linearGradient id="evening" x1="0" x2="0" y1="0" y2="1">
      <stop offset="0%" stop-color="#fbe8eb"/>
      <stop offset="100%" stop-color="#f3f8ff"/>
    </linearGradient>
  </defs>
  <rect width="520" height="360" rx="24" fill="url(#evening)"/>
  <path d="M60 250c40-40 90-50 150-32s140 40 200 18 90-6 90-6v130H60z" fill="#dce4f8" opacity="0.8"/>
  <g transform="translate(80 80)">
    <rect x="0" y="60" width="360" height="160" rx="16" fill="#fff" opacity="0.9" stroke="#c41e3a" stroke-width="4"/>
    <rect x="120" y="0" width="120" height="60" rx="12" fill="#c41e3a"/>
    <text x="180" y="38" font-family="'Hind', sans-serif" font-size="20" text-anchor="middle" fill="#fff">नेस्ट ब्वाइज होस्टल</text>
    <g transform="translate(20 100)" fill="#1a4a8d" opacity="0.75">
      <rect width="60" height="80" rx="6"/>
      <rect x="80" width="60" height="80" rx="6"/>
      <rect x="160" width="60" height="80" rx="6"/>
      <rect x="240" width="60" height="80" rx="6"/>
    </g>
    <rect x="150" y="120" width="60" height="100" rx="10" fill="#c41e3a"/>
    <rect x="164" y="134" width="32" height="72" fill="#f7f1ec"/>
  </g>
  <path d="M80 120l160-80 160 80" fill="none" stroke="#1a4a8d" stroke-width="6"/>
  <path d="M80 120l40-60 40 60 40-60 40 60 40-60 40 60 40-60 40 60" fill="none" stroke="#c41e3a" stroke-width="3"/>
  <g fill="#fdd05c">
    <circle cx="90" cy="118" r="6"/>
    <circle cx="130" cy="60" r="6"/>
    <circle cx="170" cy="118" r="6"/>
    <circle cx="210" cy="60" r="6"/>
    <circle cx="250" cy="118" r="6"/>
    <circle cx="290" cy="60" r="6"/>
    <circle cx="330" cy="118" r="6"/>
    <circle cx="370" cy="60" r="6"/>
  </g>
</svg>
