<svg width="720" height="480" viewBox="0 0 720 480" xmlns="http://www.w3.org/2000/svg" role="img" aria-labelledby="title desc">
  <title id="title">Illustration of Nest Boy's Hostel courtyard</title>
  <desc id="desc">Warm illustration showing a Kathmandu hostel courtyard with Nepali flag colours and surrounding hills.</desc>
  <defs>
    <linearGradient id="sky" x1="0" x2="0" y1="0" y2="1">
      <stop offset="0%" stop-color="#e6eeff"/>
      <stop offset="100%" stop-color="#f9f5ef"/>
    </linearGradient>
    <linearGradient id="building" x1="0" x2="1" y1="0" y2="1">
      <stop offset="0%" stop-color="#fdf2f4"/>
      <stop offset="100%" stop-color="#f4d6db"/>
    </linearGradient>
    <pattern id="dhaka" width="24" height="24" patternUnits="userSpaceOnUse">
      <rect width="24" height="24" fill="#c41e3a"/>
      <path d="M0 12h24M12 0v24" stroke="#f9f5ef" stroke-width="4" opacity="0.28"/>
      <path d="M0 0l24 24M24 0L0 24" stroke="#1a4a8d" stroke-width="2" opacity="0.3"/>
    </pattern>
  </defs>
  <rect width="720" height="480" fill="url(#sky)"/>
  <ellipse cx="360" cy="430" rx="340" ry="70" fill="#e2d9cf"/>
  <path d="M40 330c50-60 90-90 160-80s140 20 220-10 170-20 230 60v60H40z" fill="#d6e4f8" opacity="0.55"/>
  <g transform="translate(90 130)">
    <rect x="0" y="60" width="520" height="220" rx="18" fill="url(#building)" stroke="#c41e3a" stroke-width="4"/>
    <rect x="30" y="90" width="460" height="130" fill="#fff" opacity="0.85"/>
    <g fill="#1a4a8d" opacity="0.7">
      <rect x="60" y="120" width="60" height="80" rx="6"/>
      <rect x="150" y="120" width="60" height="80" rx="6"/>
      <rect x="240" y="120" width="60" height="80" rx="6"/>
      <rect x="330" y="120" width="60" height="80" rx="6"/>
      <rect x="420" y="120" width="60" height="80" rx="6"/>
    </g>
    <rect x="240" y="180" width="60" height="100" fill="#c41e3a" rx="8"/>
    <rect x="252" y="188" width="36" height="76" fill="#f4f0ec"/>
    <rect x="220" y="60" width="120" height="40" fill="#1a4a8d" rx="10"/>
    <text x="280" y="88" font-family="'Hind', sans-serif" font-size="20" text-anchor="middle" fill="#fff">Nest Boy's Hostel</text>
  </g>
  <path d="M120 360c40-10 100-16 150 0s120 20 180 6 140-30 200-16" stroke="#c41e3a" stroke-width="8" stroke-linecap="round" fill="none" opacity="0.3"/>
  <g transform="translate(120 320)">
    <rect x="0" y="30" width="160" height="40" rx="12" fill="url(#dhaka)" opacity="0.8"/>
    <rect x="180" y="10" width="80" height="80" rx="14" fill="#fff" stroke="#1a4a8d" stroke-width="4"/>
    <circle cx="220" cy="50" r="18" fill="#c41e3a"/>
    <path d="M218 44l8 6-8 6z" fill="#fff"/>
    <rect x="310" y="-10" width="140" height="110" rx="16" fill="#fff" stroke="#c41e3a" stroke-width="4" opacity="0.85"/>
    <path d="M320 20h120v60H320z" fill="#1a4a8d" opacity="0.15"/>
    <text x="380" y="50" font-family="'Hind', sans-serif" font-size="18" text-anchor="middle" fill="#7a1225">स्वागत छ</text>
  </g>
  <path d="M360 90l24-60 24 60" fill="#c41e3a"/>
  <path d="M384 30l24 60" stroke="#1a4a8d" stroke-width="8" stroke-linecap="round"/>
  <circle cx="384" cy="24" r="10" fill="#fff" stroke="#1a4a8d" stroke-width="4"/>
</svg>
