<svg width="640" height="360" viewBox="0 0 640 360" xmlns="http://www.w3.org/2000/svg" role="img" aria-labelledby="title desc">
  <title id="title">Video placeholder for Nest Boy's Hostel walkthrough</title>
  <desc id="desc">Stylised study lounge scene representing the Nest Boy's Hostel virtual tour.</desc>
  <defs>
    <linearGradient id="bg" x1="0" y1="0" x2="0" y2="1">
      <stop offset="0%" stop-color="#102b5c"/>
      <stop offset="100%" stop-color="#3d7bd9"/>
    </linearGradient>
    <linearGradient id="screen" x1="0" y1="0" x2="1" y2="1">
      <stop offset="0%" stop-color="#f4f8ff"/>
      <stop offset="100%" stop-color="#d8e7ff"/>
    </linearGradient>
  </defs>
  <rect width="640" height="360" rx="28" fill="url(#bg)"/>
  <g opacity="0.35">
    <circle cx="84" cy="70" r="46" fill="#ffffff"/>
    <circle cx="560" cy="280" r="72" fill="#ffffff"/>
    <circle cx="180" cy="330" r="58" fill="#ffffff"/>
  </g>
  <rect x="96" y="88" width="448" height="216" rx="24" fill="url(#screen)" stroke="#1f4f9b" stroke-width="4"/>
  <rect x="138" y="132" width="152" height="84" rx="16" fill="#ffffff" opacity="0.9"/>
  <rect x="306" y="132" width="180" height="84" rx="16" fill="#ffffff" opacity="0.9"/>
  <rect x="138" y="228" width="120" height="18" rx="9" fill="#b4d0ff"/>
  <rect x="270" y="228" width="96" height="18" rx="9" fill="#b4d0ff" opacity="0.8"/>
  <rect x="384" y="228" width="102" height="18" rx="9" fill="#b4d0ff" opacity="0.65"/>
  <circle cx="320" cy="196" r="52" fill="#1f4f9b"/>
  <polygon points="308,174 352,196 308,218" fill="#ffffff"/>
  <text x="320" y="290" font-family="'Poppins', sans-serif" font-size="18" text-anchor="middle" fill="#102b5c" font-weight="600">Add your real hostel walkthrough footage</text>
  <text x="320" y="320" font-family="'Hind', sans-serif" font-size="16" text-anchor="middle" fill="#102b5c">Sanepa study halls • Rooftop evenings • Guardian meet-ups</text>
</svg>
